<svg xmlns="http://www.w3.org/2000/svg" width="420" height="180" viewBox="0 0 420 180" role="img" aria-labelledby="title desc">
  <title id="title">Top languages</title>
  <desc id="desc">Top languages across owned GitHub repositories.</desc>
  <style>
    text {
      font-family: 'Segoe UI', 'Helvetica Neue', Arial, sans-serif;
    }
  </style>
  <rect width="420" height="180" rx="18" fill="#0D1117" />
  <text x="24" y="34" fill="#C9D1D9" font-size="20" font-weight="700">Top Languages</text>
  <text x="24" y="54" fill="#8B949E" font-size="12">Calculated from repository language byte sizes</text>
  
            <circle cx="30" cy="64" r="5" fill="#58A6FF" />
            <text x="44" y="68" fill="#C9D1D9" font-size="12" font-weight="600">Rust</text>
            <rect x="150" y="57" width="190" height="10" rx="5" fill="#161B22" />
            <rect x="150" y="57" width="63" height="10" rx="5" fill="#58A6FF" />
            <text x="390" y="68" fill="#8B949E" font-size="12" text-anchor="end">33.7%</text>
            
            <circle cx="30" cy="88" r="5" fill="#F778BA" />
            <text x="44" y="92" fill="#C9D1D9" font-size="12" font-weight="600">Python</text>
            <rect x="150" y="81" width="190" height="10" rx="5" fill="#161B22" />
            <rect x="150" y="81" width="43" height="10" rx="5" fill="#F778BA" />
            <text x="390" y="92" fill="#8B949E" font-size="12" text-anchor="end">22.8%</text>
            
            <circle cx="30" cy="112" r="5" fill="#7EE787" />
            <text x="44" y="116" fill="#C9D1D9" font-size="12" font-weight="600">TypeScript</text>
            <rect x="150" y="105" width="190" height="10" rx="5" fill="#161B22" />
            <rect x="150" y="105" width="38" height="10" rx="5" fill="#7EE787" />
            <text x="390" y="116" fill="#8B949E" font-size="12" text-anchor="end">20.0%</text>
            
            <circle cx="30" cy="136" r="5" fill="#FF7B72" />
            <text x="44" y="140" fill="#C9D1D9" font-size="12" font-weight="600">Vue</text>
            <rect x="150" y="129" width="190" height="10" rx="5" fill="#161B22" />
            <rect x="150" y="129" width="31" height="10" rx="5" fill="#FF7B72" />
            <text x="390" y="140" fill="#8B949E" font-size="12" text-anchor="end">16.7%</text>
            
            <circle cx="30" cy="160" r="5" fill="#D2A8FF" />
            <text x="44" y="164" fill="#C9D1D9" font-size="12" font-weight="600">JavaScript</text>
            <rect x="150" y="153" width="190" height="10" rx="5" fill="#161B22" />
            <rect x="150" y="153" width="12" height="10" rx="5" fill="#D2A8FF" />
            <text x="390" y="164" fill="#8B949E" font-size="12" text-anchor="end">6.8%</text>
            
</svg>
